<svg xmlns="http://www.w3.org/2000/svg" xmlns:xlink="http://www.w3.org/1999/xlink" version="1.1" width="212.079pt" height="85.0394pt" viewBox="0 0 212.079 85.0394">
    <defs>
        <clipPath id="clip_0">
            <path transform="matrix(1,0,0,-1,0,85.0394)" d="M0 85.039H212.079V0H0Z"/>
        </clipPath>
    </defs>
    <g id="layer_1" data-name="">
    </g>
    <g id="layer_1" data-name="">
        <g clip-path="url(#clip_0)">
            <path transform="matrix(1,0,0,-1,67.9715,36.328798)"
                  d="M0 0V-5.614H3.068C6.923-5.614 7.927-5.35 7.927-2.873 7.927-.407 6.923 0 3.068 0ZM11.457-2.807C11.457-6.618 10.317-8.011 7.14-8.451L11.844-15.048C12.061-15.316 11.925-15.536 11.518-15.536H8.878C8.253-15.536 8.063-15.365 7.792-14.999L3.329-8.671H0V-15.17C0-15.463-.082-15.536-.407-15.536H-3.095C-3.421-15.536-3.502-15.463-3.502-15.17V2.739C-3.502 3.008-3.421 3.057-3.095 3.081-.923 3.228 1.52 3.277 3.393 3.277 9.421 3.277 11.457 2.153 11.457-2.807"
                  fill="#282828"/>
            <path transform="matrix(1,0,0,-1,85.2644,42.385198)"
                  d="M0 0C0-4.743 .76-6.135 4.996-6.135 9.231-6.135 10.018-4.743 10.018 0 10.018 4.801 9.231 6.204 4.996 6.204 .76 6.204 0 4.801 0 0M13.52-.171C13.52-7.452 11.783-9.602 4.996-9.602-1.765-9.602-3.529-7.452-3.529-.171-3.529 7.158-1.765 9.333 4.996 9.333 11.783 9.333 13.52 7.158 13.52-.171"
                  fill="#282828"/>
            <path transform="matrix(1,0,0,-1,114.9917,33.1745)"
                  d="M0 0C.271 0 .434-.122 .434-.367V-2.844C.434-3.088 .271-3.21 0-3.21H-9.747V-7.972H-.869C-.597-7.972-.462-8.094-.462-8.339V-10.743C-.462-10.987-.597-11.109-.869-11.109H-9.747V-18.324C-9.747-18.568-9.882-18.69-10.154-18.69H-12.842C-13.113-18.69-13.249-18.568-13.249-18.324V-.367C-13.249-.122-13.113 0-12.842 0Z"
                  fill="#282828"/>
            <path transform="matrix(1,0,0,-1,121.1806,33.1745)"
                  d="M0 0C.271 0 .407-.122 .407-.367V-18.3C.407-18.568 .271-18.69 0-18.69H-2.661C-2.932-18.69-3.068-18.568-3.068-18.3V-.367C-3.068-.122-2.932 0-2.661 0Z" fill="#282828"/>
            <path transform="matrix(1,0,0,-1,141.2434,33.1745)"
                  d="M0 0C.271 0 .407-.122 .407-.367V-18.3C.407-18.568 .271-18.69 0-18.69H-2.09C-2.606-18.69-2.905-18.593-3.231-18.153L-13.059-5.339V-18.3C-13.059-18.568-13.195-18.69-13.466-18.69H-16.154C-16.425-18.69-16.561-18.568-16.561-18.3V-.367C-16.561-.122-16.425 0-16.154 0H-13.9C-12.869-.025-12.706-.171-12.272-.757L-3.068-12.691V-.367C-3.068-.122-2.932 0-2.661 0Z"
                  fill="#282828"/>
            <path transform="matrix(1,0,0,-1,147.6677,33.1745)"
                  d="M0 0C.271 0 .407-.122 .407-.367V-18.3C.407-18.568 .271-18.69 0-18.69H-2.661C-2.932-18.69-3.068-18.568-3.068-18.3V-.367C-3.068-.122-2.932 0-2.661 0Z" fill="#282828"/>
            <path transform="matrix(1,0,0,-1,166.4635,33.1745)"
                  d="M0 0C.271 0 .407-.122 .407-.367V-2.844C.407-3.088 .271-3.21 0-3.21H-5.946V-18.324C-5.946-18.568-6.081-18.69-6.353-18.69H-9.014C-9.285-18.69-9.421-18.568-9.421-18.324V-3.21H-15.34C-15.611-3.21-15.747-3.088-15.747-2.844V-.367C-15.747-.122-15.611 0-15.34 0Z"
                  fill="#282828"/>
            <path transform="matrix(1,0,0,-1,50.7056,36.328798)"
                  d="M0 0V-5.614H3.068C6.923-5.614 7.927-5.35 7.927-2.873 7.927-.407 6.923 0 3.068 0ZM11.457-2.807C11.457-7.865 9.421-8.671 3.393-8.671H0V-15.17C0-15.463-.082-15.536-.407-15.536H-3.095C-3.421-15.536-3.502-15.463-3.502-15.17V2.739C-3.502 3.008-3.421 3.057-3.095 3.081-.923 3.228 1.52 3.277 3.393 3.277 9.421 3.277 11.457 2.153 11.457-2.807"
                  fill="#282828"/>
            <path transform="matrix(1,0,0,-1,30.8847,54.2502)"
                  d="M0 0-9.717 6.725C-9.887 6.843-9.935 7.071-9.828 7.247L-.259 22.934C-.149 23.114 .084 23.174 .266 23.068L2.008 22.063C2.19 21.958 2.255 21.727 2.156 21.542L-5.034 8.207C-5.122 8.044-5.083 7.842-4.94 7.723L1.681 2.239C1.84 2.107 1.868 1.873 1.744 1.707L.532 .087C.407-.081 .172-.119 0 0"
                  fill="#e63c41"/>
            <path transform="matrix(1,0,0,-1,180.9273,53.857599)"
                  d="M0 0-1.742 1.005C-1.923 1.111-1.989 1.341-1.889 1.526L5.301 14.862C5.389 15.024 5.35 15.227 5.207 15.345L-1.414 20.83C-1.574 20.962-1.601 21.195-1.477 21.361L-.265 22.982C-.14 23.149 .095 23.187 .266 23.068L9.984 16.343C10.153 16.226 10.202 15.997 10.095 15.821L.526 .134C.416-.046 .183-.105 0 0"
                  fill="#e63c41"/>
        </g>
    </g>
</svg>
