<svg xmlns="http://www.w3.org/2000/svg" xmlns:xlink="http://www.w3.org/1999/xlink" version="1.1" width="31.68pt" height="89.1pt" viewBox="0 0 31.68 89.1">
    <defs>
        <clipPath id="clip_0">
            <path transform="matrix(1,0,0,-1,-760.32,124.92)" d="M0 0H792V612H0Z"/>
        </clipPath>
        <clipPath id="clip_1">
            <path transform="matrix(1,0,0,-1,-760.32,124.92)" d="M0 0H792V612H0Z"/>
        </clipPath>
    </defs>
    <g clip-path="url(#clip_0)">
        <g clip-path="url(#clip_1)">
            <text xml:space="preserve" transform="matrix(1 0 -0 1 -760.32 124.92)" font-size="8" font-family="ProximaNova"><tspan y="-563.1603" x="42.5197 48.5589 54.537298 60.801298 67.478099 73.8781 76.7421 83.428508 90.0285 92.940509 99.502109 105.018909 109.98211 112.89411 119.570919 125.08372">BRAND GUIDELINES</tspan></text>
            <path transform="matrix(1,0,0,-1,40.285768,76.9989)"
                  d="M0 0-29.778 20.61C-30.297 20.969-30.445 21.669-30.117 22.208L-.794 70.28C-.458 70.832 .257 71.014 .817 70.691L6.153 67.61C6.711 67.288 6.911 66.581 6.606 66.015L-15.427 25.149C-15.696 24.65-15.576 24.03-15.139 23.668L5.15 6.86C5.638 6.455 5.724 5.739 5.344 5.231L1.63 .266C1.247-.247 .526-.364 0 0"
                  fill="#465a9b"/>
            <path transform="matrix(1,0,0,-1,-763.68386,-385.40998)"
                  d="M0 0-2.329 1.345C-2.573 1.485-2.66 1.794-2.527 2.041L7.09 19.877C7.208 20.095 7.155 20.365 6.964 20.523L-1.891 27.859C-2.104 28.036-2.142 28.348-1.976 28.57L-.355 30.737C-.188 30.961 .127 31.012 .356 30.853L13.353 21.858C13.58 21.701 13.645 21.396 13.501 21.161L.703 .179C.556-.061 .244-.141 0 0"
                  fill="#e63c41"/>
        </g>
        <text fill="#223032" xml:space="preserve" transform="matrix(1 0 -0 1 -760.32 124.92)" font-size="60" font-family="ProximaNova" font-weight="bold"><tspan y="-332.1584" x="42.5197 58.1617 91.8817 111.1417 143.4037 177.1237 197.4037 212.7637 258.5557 278.1817">Intent Of </tspan>
            <tspan y="-272.1584" x="42.5197 75.909709 109.57571 123.927707 152.5477 167.9077 210.6937 244.37169 258.6517 292.9117">This Guide</tspan></text>
        <text xml:space="preserve" transform="matrix(1 0 -0 1 -760.32 124.92)" font-size="9" font-family="ProximaNova"><tspan y="-417.8984" x="377.5748 382.7822 387.84919 392.91618 395.23817 400.60127 406.14079 413.1869 418.2449 420.5831 427.1549 429.3779 434.5079 436.8299 442.13179 445.22688 450.06889 455.1413 460.31629 462.63829 467.9033 472.9694 475.09339 480.38267 485.56394 487.68794 489.81193 494.86994 500.03593 504.22093 506.5429 511.6099 516.4645 520.6495 522.9715 528.2824 533.47006 538.63607 543.59506">The PROFINIT brand guidelines has been </tspan>
            <tspan y="-404.3984"
                   x="377.5748 382.74079 387.14088 389.93806 394.78007 400.09007 402.21406 404.36146 408.64546 413.71244 418.90003 424.075 426.397 429.0583 434.2063 436.5283 441.7933 446.85853 448.9825 454.2718 459.33879 461.66078 466.40379 468.72578 473.78379 478.88227 485.48826 487.81025 492.65226 497.94877 503.2444 506.2504 511.48933 516.3313 520.8745 525.8425">established to guide a new approach </tspan>
            <tspan y="-390.8984"
                   x="377.5748 380.23609 385.3841 387.7061 392.3006 394.448 398.7131 403.781 408.62303 410.648 412.97 417.4304 422.6927 430.0745 437.4428 442.5053 447.55073 449.65763 454.2557 459.10673 461.9165 464.0234 469.28483 474.24385 476.56584 478.68983 483.64884 485.97084 491.2673 494.3498 496.4738 501.5579 504.21379 509.40138 514.57638 516.8984 521.7413 526.81369 531.98867">to visual communication in printed and </tspan>
            <tspan y="-377.3984"
                   x="377.5748 382.8569 384.9809 390.254 392.4257 395.2229 400.064 402.089 404.41099 409.71287 412.80796 417.65086 422.72685 428.01884 433.20283 438.3778 440.6998 445.1602 450.4252 455.50929 458.1652 463.33479 468.41886 471.32768">digital branded content.</tspan>
            <tspan y="-350.3984"
                   x="377.5748 382.7822 387.84739 389.99479 394.17979 396.50178 401.76768 406.8329 408.95689 414.24617 419.31315 421.63514 423.78254 427.96754 430.28953 435.03254 437.35453 440.35154 445.48423 448.07533 453.2449 456.2419 461.41239 466.4713 470.9263 475.9933 478.31529 480.91539 486.17768 489.14768 491.46968 496.55827 500.97816 506.14863 509.5389 513.96786 519.23019 524.28909 529.3561">This guide is a reference for everyone </tspan>
            <tspan y="-336.8984"
                   x="377.5748 384.33558 389.40348 394.55149 396.87348 399.02088 403.20588 405.52787 410.35279 415.46659 418.27638 423.34428 428.60658 431.68907 433.68077 437.80186 442.98945 448.16444 450.48643 453.14683 458.29484 460.61683 467.2849 472.5472 475.6297 480.2557 482.5777 489.33848 491.51017 494.31996 499.28794 501.60993 504.41883 509.48674 514.5537">who is authorized to work with the </tspan>
            <tspan y="-323.3984"
                   x="377.5748 382.93879 388.47828 395.52439 400.5824 402.9206 409.4924 411.7154 416.8454 419.1674 424.46839 427.56349 432.4064 437.4797 442.787 444.857 447.179 454.2089 459.2714 462.2414 464.5634 466.68739 471.77149 474.42649 479.59696 484.68107 487.32707 489.64906 496.40983 498.5815 501.3913 506.35929 508.68128 511.49107 516.5563 518.7028 522.8878">PROFINIT brand. Our intent with this </tspan>
            <tspan y="-309.8984"
                   x="377.5748 382.8407 387.9068 390.0308 395.32008 400.38706 402.70906 404.85554 409.04054 411.36253 416.42146 421.64778 424.29377 426.61576 429.27705 434.42506 436.74705 439.74406 444.90644 449.30653 452.11543 455.1979 457.3048 462.1072 464.7532 467.0752 471.61839 474.6154 479.76969 484.6207 487.43049 489.63099 494.22639 496.3972 499.40769 503.8177 506.13969 510.9826 516.0559 521.2309">guide is not to restrict creativity and </tspan>
            <tspan y="-296.3984"
                   x="377.5748 379.6988 384.75773 389.81666 394.98356 399.50157 404.35258 407.16236 409.26835 414.53065 419.46626 421.53627 423.85826 426.54747 431.39039 434.36039 436.68238 439.35899 442.365 447.6264 454.8984 457.2204 459.3921 462.30088 464.37089">innovation: far from it. </tspan>
            <tspan y="-269.3984"
                   x="377.5748 385.4228 390.48979 392.81178 398.12266 403.30393 405.4324 407.5384 412.62788 417.04777 422.11476 424.43675 426.56074 431.51976 433.84175 436.65153 441.71943 446.7864 449.1084 453.65159 456.64768 461.80198 466.65299 469.46278 471.66416 476.08406 481.15104 483.47303 487.75343 493.031 495.155 498.2366 500.4083 503.3108 505.3808 507.7028 512.5457 517.619 522.794">We believe in the creative spirit, and </tspan>
            <tspan y="-255.8984"
                   x="377.5748 379.6988 384.75773 389.81666 394.98356 399.50157 404.35258 407.16236 409.26835 414.53065 419.48966 421.81166 423.95906 428.14405 430.46604 435.72834 440.78727 445.85426 448.17625 453.37736 455.92436 458.24635 463.49336 468.55586 471.52586 473.84785 478.30824 483.57054 486.56755 491.63453 493.9565 498.47453 503.31654 505.43064 510.50395 515.6663 519.9791 522.04916">innovation is one of our core values. </tspan>
            <tspan y="-242.3984"
                   x="377.5748 385.6847 390.74809 395.5991 398.2451 400.56709 407.20817 412.27516 414.59715 418.99723 421.807 424.8895 427.09089 431.51078 436.57777 438.89976 441.49986 446.76216 449.73216 452.05415 454.20063 458.38563 460.7076 465.45063 467.7726 473.0547 475.2021 479.60218 482.41197 484.53596 489.59489 494.39729 497.20707 499.40757 503.82746 508.89445 511.21644 516.0593 521.1326 526.3076">What we strive for is a distinctive and </tspan>
            <tspan y="-228.8984"
                   x="377.5748 382.0352 387.2975 392.3681 396.6395 398.7869 403.18699 405.84288 411.01246 416.09657 418.74256 421.06455 426.36643 429.46153 434.30445 439.37776 444.55274 446.87474 452.1712 455.1682 460.3306 464.5975 469.76799 474.8269 479.2819 484.34889 486.67088 488.79487 493.75389 496.07588 501.16535 505.58525 510.7557 514.1451 519.01766 521.82748 526.8927 529.0167 534.09 539.25607">consistent brand presence in everything </tspan>
            <tspan y="-215.3984"
                   x="377.5748 384.21589 389.28288 391.60487 396.14805 399.14506 404.29844 409.14945 411.80534 416.8723 418.94233 421.2643 423.5971 426.1441 428.4661 435.10719 440.17417 442.49617 447.78544 452.9478 457.2192 459.34233 464.6118 469.67073 474.8583 480.0333 482.3553 486.62309 491.88539 499.26539 504.42329 507.23307 512.2983 514.4223 519.4947 524.8146 526.8846 529.2066 535.8477 540.91476">we create. If we designed something, we </tspan>
            <tspan y="-201.8984"
                   x="377.5748 384.27619 389.1191 394.20323 396.8492 399.1712 401.8325 406.9805 409.3025 416.6771 421.52003 426.0443 431.1113 433.4333 437.6984 442.7609 445.7579 450.8249 453.14689 455.95668 461.01918 465.87107 468.51707 470.83906 476.14366 481.33125 486.59355 491.89903 494.0374 499.1044 501.4264 506.1901 511.24903 516.45016 523.05618 525.3782 527.5499 530.48306 534.668">want to make sure that people know its </tspan>
            <tspan y="-188.3984" x="377.5748 382.9388 388.47834 395.52445 400.58247 402.92066 409.49247 411.71546 416.32887">PROFINIT.</tspan>
            <tspan y="-417.8984"
                   x="557.8628 565.9727 571.03799 573.1665 575.30496 580.37197 582.694 586.9609 592.2232 599.60317 604.67019 606.9922 612.1933 614.7403 617.0623 622.31027 627.37277 630.3427 632.66476 637.9657 641.0608 645.9037 650.977 656.152 658.474 663.541 667.88809 673.0757 677.6 682.71377 685.52359 687.6305 692.8928 697.9625 702.1475 704.46957 709.31246 714.38577 719.5607">While some of our brand executions and </tspan>
            <tspan y="-404.3984"
                   x="557.8628 563.1278 566.2229 571.0649 576.3605 581.4275 583.5344 588.2388 592.42379 594.7458 599.8128 604.57919 608.999 614.06607 616.38809 621.69808 626.8857 632.0517 637.0107 639.3327 643.7328 646.52999 651.37197 656.44528 661.73007 666.572 669.6068 674.8898 676.8806 681.0017 686.18936 691.3643 693.68637 696.04708 698.1711 700.2951 704.8194 709.8855">graphics have been standardized (like </tspan>
            <tspan y="-390.8984"
                   x="557.8628 563.1521 568.2398 572.5112 574.63528 579.69326 584.85928 589.16848 593.35348 595.6755 600.2736 605.1156 608.15127 613.45498 617.78036 619.85037 622.17239 624.3108 629.4687 632.4486 635.1045 640.2705 643.35299 648.42 653.5743 658.4316 663.7308 665.8008 668.1228 672.9648 678.0381 683.2131 685.5351 692.1762 697.3422 702.6306 706.90206 709.0738 711.7297 716.7337 718.9648">business cards, letterhead, and website) </tspan>
            <tspan y="-377.3984"
                   x="557.8628 560.6726 565.74057 570.90298 575.1708 580.2378 582.5598 587.4018 590.39877 595.46578 597.7878 602.8467 608.073 610.719 613.041 615.8508 620.91879 625.9858 628.3078 630.9079 636.1729 640.6972 645.7849 649.9699 652.29196 657.49307 660.04006 662.36209 665.1719 670.2371 672.38369 676.56869 678.8907 684.1566 689.2227 691.34677 696.63607 701.70309">these are not the focus of this guide.</tspan>
            <tspan y="-350.3984"
                   x="557.8628 560.1542 565.22476 569.6248 572.2807 577.435 582.2923 587.5915 589.6615 591.9835 594.15438 596.80038 599.1224 601.2698 605.4548 607.7768 610.4381 615.5861 617.90817 623.0787 630.46047 635.766 640.968 647.6082 652.77877 655.7487 658.07077 662.49966 667.74758 672.83078 674.90078 677.2228 680.0326 685.1005 690.16757">Instead, it is to empower you, the </tspan>
            <tspan y="-336.8984"
                   x="557.8628 562.406 565.40298 570.55728 575.4082 578.2171 580.4185 584.8384 589.91439 591.9844 594.3064 601.0672 603.23898 606.04879 611.0168 613.3388 616.1486 621.21658 626.28359 628.6056 633.7869 635.92538 641.0959 648.4758 653.64639 658.73049 661.6636 665.8486 668.1706 672.5995 677.8474 682.8064 685.1284 690.1864 695.374 700.56167 705.73666 708.05868 710.72 715.868">creative, with the elements you need to </tspan>
            <tspan y="-323.3984" x="557.8628 562.406 565.40298 570.55728 575.4082 578.0632 583.1302 585.2002">create. </tspan>
            <tspan y="-296.3984"
                   x="557.8628 563.7596 568.16958 570.4916 575.60537 578.41519 580.5437 582.6713 584.663 588.8822 591.0062 596.0795 601.24557 603.56759 606.3774 611.4453 616.6077 620.87557 625.94259 628.2646 633.1183 637.4284 641.6962 646.8541 649.78726 654.1126 656.1826 658.50466 663.34756 668.42086 673.5958 675.91787 680.77517 686.05368 691.12069 696.2912 699.37368 701.4977 706.571 711.737 714.059 716.72036 721.86837">By utilizing these assets, and adhering to </tspan>
            <tspan y="-282.8984"
                   x="557.8628 560.6726 565.7396 570.80667 573.12869 578.3937 583.4598 585.5838 590.8731 596.05447 598.17849 600.3025 605.3605 610.5265 614.7115 617.0335 623.7934 625.96517 628.77499 633.842 635.966 641.0492 643.1192 645.4412 649.8701 655.1171 660.0842 662.129 664.24679 666.2718 668.5938 675.9648 680.80679 685.33108 690.3981 692.7201 695.5299 700.5969 702.72097 707.79428 713.0881 717.2731">the guidelines within, you&#x2019;ll make things </tspan>
            <tspan y="-269.3984"
                   x="557.8628 560.6726 565.736 570.587 573.233 575.555 577.6934 582.9575 588.21987 592.8458 595.16787 597.2964 599.4204 603.9447 609.0117 611.33377 614.14358 619.2115 624.2785 626.6005 631.84756 636.91006 639.88 642.202 647.5039 650.599 655.4419 660.5152 665.8144 667.8844 670.2064 675.29507 679.7149 684.88546 688.2757 692.68569 695.0077 697.8175 699.9415 707.3215 712.3885">that look like the our brand, every time.</tspan></text>
        <text xml:space="preserve" transform="matrix(1 0 -0 1 -760.32 124.92)" font-size="8" font-family="ProximaNova"><tspan y="-563.1603" x="734.4372 739.7252 745.01327">004</tspan></text>
    </g>
</svg>
